<svg id="Warstwa_1" data-name="Warstwa 1" xmlns="http://www.w3.org/2000/svg" width="21.35mm" height="19.15mm" viewBox="0 0 60.52 54.29"><defs><style>.cls-1{fill:#5db2ff;}</style></defs><path class="cls-1" d="M10.77,49.79l5-1.61c-.62-.55-1.13-1-1.61-1.44A1,1,0,0,1,14,45.19c.44-.44,1-.4,1.54.14s1.23,1.27,1.88,1.86a.9.9,0,0,0,.75.19c2.14-.66,4.27-1.36,6.41-2,.3-.1.44-.23.38-.58-.15-.82-.26-1.66-.36-2.49a.58.58,0,0,0-.58-.59c-1.21-.14-2.41-.33-3.62-.5a1,1,0,0,1-1-1c-.23-1.59-.51-3.19-.69-4.79a1.45,1.45,0,0,1,.38-1q11-11,22-22c.75-.75,1.28-.85,1.77-.35s.35,1-.39,1.77Q31.8,24.43,21.18,35a1.27,1.27,0,0,0-.41,1.22c.15.87.27,1.75.38,2.62a.5.5,0,0,0,.5.51c1,.13,2,.3,3,.42a1,1,0,0,0,.6-.22,5.3,5.3,0,0,0,.59-.57Q37.71,27.14,49.57,15.26c.73-.73,1.3-.84,1.77-.34s.36,1-.35,1.72q-12,12-23.93,23.91a1.49,1.49,0,0,0-.54,1.65,7.61,7.61,0,0,1,.2,1.31q14-14,28.08-28.07L52,12.68,44.31,5a1,1,0,0,1,0-1.6Q45,2.67,45.75,2a7,7,0,0,1,9.74,0Q57.07,3.46,58.57,5a7,7,0,0,1-.24,10Q43,30.33,27.7,45.66a6.1,6.1,0,0,1-2.56,1.58c-5,1.58-10,3.22-15,4.84a1.41,1.41,0,0,1-.42.12A2.77,2.77,0,0,1,8.53,52c-.42-.26-.37-.74-.22-1.2q1.3-4,2.58-7.95c.92-2.86,1.83-5.71,2.76-8.56a1.61,1.61,0,0,1,.38-.64Q27.59,20.1,41.17,6.56a2.37,2.37,0,0,1,.38-.33.9.9,0,0,1,1.21.11.91.91,0,0,1,.13,1.25,3.85,3.85,0,0,1-.51.56Q29.21,21.31,16.06,34.49a3.15,3.15,0,0,0-.76,1.25c-1.47,4.44-2.9,8.89-4.34,13.34C10.9,49.27,10.86,49.47,10.77,49.79ZM56.38,14.1c2.77-2.34,2.92-5.54.37-8.09L54.44,3.7a5.09,5.09,0,0,0-8,.45Z"/><path class="cls-1" d="M2,10H31.73a4.39,4.39,0,0,1,.63,0,1,1,0,0,1,.87,1,1,1,0,0,1-.85.95,3.32,3.32,0,0,1-.63,0H2v39c0,1,.32,1.35,1.34,1.36.55,0,1.09,0,1.64,0a1,1,0,1,1,0,2c-.69,0-1.38,0-2.07,0A3,3,0,0,1,0,51.4c0-.19,0-.38,0-.57V5.35C0,3.07,1.17,1.89,3.45,1.89H38.78c1,0,1.52.33,1.51,1s-.5,1-1.54,1H3.48C2.27,3.88,2,4.16,2,5.35Z"/><path class="cls-1" d="M36.4,54.28H15.61a5.19,5.19,0,0,1-.56,0,1,1,0,0,1-.93-1,1,1,0,0,1,.91-1,4.42,4.42,0,0,1,.63,0H57c1.2,0,1.48-.28,1.48-1.48V19.51c0-1,.31-1.46,1-1.48s1,.47,1,1.49V50.89a3.05,3.05,0,0,1-3.39,3.39Z"/><path class="cls-1" d="M45.92,9.9a1,1,0,0,1-1,1,1,1,0,0,1-.94-1,.94.94,0,0,1,1-1A1,1,0,0,1,45.92,9.9Z"/><path class="cls-1" d="M6,6.94a1,1,0,0,1-1,1,1,1,0,0,1,0-2A1,1,0,0,1,6,6.94Z"/><path class="cls-1" d="M9.06,5.93a1,1,0,1,1-1,1A1,1,0,0,1,9.06,5.93Z"/><path class="cls-1" d="M13.08,7.91a1,1,0,1,1,1-1A1,1,0,0,1,13.08,7.91Z"/></svg>