<svg id="Warstwa_1" data-name="Warstwa 1" xmlns="http://www.w3.org/2000/svg" width="28.66mm" height="20.15mm" viewBox="0 0 81.25 57.11"><defs><style>.cls-1{fill:#5db2ff;}</style></defs><path class="cls-1" d="M0,47.73a1.92,1.92,0,0,1,1.76-.81q15.39,0,30.78,0c1.25,0,1.51.22,1.75,1.42a1.21,1.21,0,0,0,1.25,1.1c3.39,0,6.77,0,10.16,0A1.22,1.22,0,0,0,47,48.3c.17-1,.52-1.36,1.57-1.36H79.72c1.08,0,1.53.45,1.53,1.55,0,1.48,0,3,0,4.44a3.82,3.82,0,0,1-4.13,4.15H44c-13.09,0-26.18,0-39.27,0-2.36,0-4-.77-4.77-3Zm78.71,1.78-.4,0q-14.24,0-28.48,0a1.09,1.09,0,0,0-.74.49,3.77,3.77,0,0,1-3.37,2c-3.41,0-6.83,0-10.24,0a3.53,3.53,0,0,1-3.19-1.87,1.13,1.13,0,0,0-1.16-.67q-13.85,0-27.69,0h-.9v3.17c0,1.57.33,1.91,1.9,1.91H76.79c.21,0,.42,0,.63,0A1.24,1.24,0,0,0,78.7,53.3C78.73,52.06,78.71,50.82,78.71,49.51Z"/><path class="cls-1" d="M73.16,0a4.07,4.07,0,0,1,2.9,3,5.07,5.07,0,0,1,.11,1.1q0,20,0,40c0,.64-.08,1.21-.73,1.53a1.25,1.25,0,0,1-1.8-1,5.21,5.21,0,0,1,0-.79q0-19.7,0-39.39c0-1.51-.35-1.85-1.87-1.85H9.49c-1.52,0-1.87.34-1.87,1.85V43.78a4.15,4.15,0,0,1,0,.79,1.19,1.19,0,0,1-1.26,1.08,1.19,1.19,0,0,1-1.24-1.1,4.17,4.17,0,0,1,0-.79c0-13,0-26,0-39,0-2.35.78-4,3-4.76Z"/><path class="cls-1" d="M12.73,7.61V41.82H68.49V7.61H46.25a3.46,3.46,0,0,1-.79,0,1.2,1.2,0,0,1-1-1.24,1.21,1.21,0,0,1,1-1.24,3.37,3.37,0,0,1,.71,0H69.34c1.36,0,1.76.39,1.76,1.73V42.71c0,1.29-.41,1.69-1.72,1.69H11.86c-1.3,0-1.7-.4-1.7-1.7V6.79c0-1.31.4-1.72,1.68-1.72H35.25c.66,0,1.29.14,1.44.83a1.74,1.74,0,0,1-.32,1.33,1.78,1.78,0,0,1-1.22.37c-6.08,0-12.17,0-18.25,0Z"/><path class="cls-1" d="M32.37,15.22H19.6a4.19,4.19,0,0,1-.71,0,1.26,1.26,0,0,1,0-2.5,3.35,3.35,0,0,1,.71,0H45.19a3.37,3.37,0,0,1,.71,0,1.26,1.26,0,0,1,0,2.49,3.35,3.35,0,0,1-.71,0Z"/><path class="cls-1" d="M26.66,25.37H19.45c-1.08,0-1.66-.44-1.67-1.25s.58-1.29,1.63-1.29H34.07c.92,0,1.49.51,1.47,1.28S35,25.36,34,25.37H26.66Z"/><path class="cls-1" d="M41.26,20.3H34.61c-1,0-1.58-.46-1.6-1.25s.57-1.29,1.55-1.29H48c.65,0,1.22.19,1.36.83a1.7,1.7,0,0,1-.27,1.28,1.6,1.6,0,0,1-1.12.41C45.75,20.31,43.51,20.3,41.26,20.3Z"/><path class="cls-1" d="M56.5,15.22H51c-.94,0-1.51-.47-1.52-1.24s.56-1.29,1.54-1.29H61.92c1,0,1.56.48,1.56,1.28s-.59,1.25-1.59,1.25Z"/><path class="cls-1" d="M24.12,20.3H19.37c-1,0-1.58-.46-1.59-1.25s.57-1.29,1.55-1.29h9.58c1,0,1.57.49,1.56,1.29s-.59,1.24-1.59,1.25Z"/><path class="cls-1" d="M40.62,5.08c.42,0,.85,0,1.27,0a1.25,1.25,0,0,1,1.27,1.24A1.23,1.23,0,0,1,41.93,7.6c-.86,0-1.73,0-2.6,0a1.24,1.24,0,0,1-1.24-1.27,1.26,1.26,0,0,1,1.27-1.25C39.78,5.06,40.2,5.08,40.62,5.08Z"/></svg>