<svg id="Warstwa_1" data-name="Warstwa 1" xmlns="http://www.w3.org/2000/svg" width="28.71mm" height="21.04mm" viewBox="0 0 81.37 59.65"><defs><style>.cls-1{fill:#5db2ff;}</style></defs><path class="cls-1" d="M40.7,0H71.39c2.94,0,4.55,1.62,4.55,4.56v42.3a4.79,4.79,0,0,1,0,.76,1.33,1.33,0,0,1-1.34,1.17,1.3,1.3,0,0,1-1.28-1.15,3.92,3.92,0,0,1,0-.84V4.67c0-1.62-.37-2-2-2H10.07c-1.59,0-2,.38-2,2v42c0,.25,0,.51,0,.76a1.33,1.33,0,0,1-2.66,0c0-.22,0-.45,0-.68V4.55C5.43,1.61,7.05,0,10,0Z"/><path class="cls-1" d="M57.32,40.1a5.77,5.77,0,0,1-.66,1.1c-1,1.11-2.15,2.17-3.22,3.25a1.39,1.39,0,0,1-1.92.19c-.85-.55-1.69-1.12-2.57-1.63a1.32,1.32,0,0,0-.9-.06,17,17,0,0,1-1.72.72,1.63,1.63,0,0,0-1.39,1.61c-.11.81-.34,1.6-.51,2.4A1.31,1.31,0,0,1,43,48.79c-1.58,0-3.17,0-4.75,0A1.27,1.27,0,0,1,37,47.72c-.22-.94-.49-1.87-.62-2.81a1.22,1.22,0,0,0-1-1.14A4.27,4.27,0,0,1,34,43.23a1.69,1.69,0,0,0-2.27.19,18.93,18.93,0,0,1-1.91,1.24A1.37,1.37,0,0,1,28,44.47l-3.3-3.3a1.36,1.36,0,0,1-.17-1.84c.53-.84,1.05-1.68,1.61-2.49a.92.92,0,0,0,0-1.15,2.64,2.64,0,0,1-.45-1,2.41,2.41,0,0,0-2.55-2.13,14.8,14.8,0,0,1-1.58-.33,1.4,1.4,0,0,1-1.22-1.56q0-2.21,0-4.41a1.4,1.4,0,0,1,1.23-1.56c1-.2,1.94-.38,2.89-.66a1.49,1.49,0,0,0,.78-.71c.3-.54.39-1.2.73-1.7a1.5,1.5,0,0,0-.16-2c-.47-.63-.85-1.33-1.29-2a1.42,1.42,0,0,1,.19-2q1.61-1.57,3.18-3.18a1.41,1.41,0,0,1,2-.19c.83.54,1.65,1.1,2.51,1.58a1.46,1.46,0,0,0,1,0c.41-.1.76-.42,1.17-.49a2.3,2.3,0,0,0,2-2.44A11.49,11.49,0,0,1,37,9.21,1.27,1.27,0,0,1,38.3,8.15c1.58,0,3.17,0,4.75,0a1.3,1.3,0,0,1,1.38,1.12c.21,1,.46,1.93.64,2.9a1,1,0,0,0,.8.93,10.63,10.63,0,0,1,2,.85,1,1,0,0,0,1.22-.1c.79-.54,1.61-1.05,2.42-1.56a1.39,1.39,0,0,1,1.91.21c1.06,1.07,2.11,2.13,3.18,3.18a1.41,1.41,0,0,1,.22,2c-.51.78-1,1.59-1.52,2.34a1.11,1.11,0,0,0,0,1.38,4.11,4.11,0,0,1,.57,1.31c.18,1.09.85,1.45,1.85,1.57.72.08,1.43.31,2.15.46A1.35,1.35,0,0,1,61,26.15c0,1.55,0,3.1,0,4.66a1.3,1.3,0,0,1-1.1,1.39c-1,.22-2,.47-3,.65a1,1,0,0,0-.86.78,3,3,0,0,1-.42,1.1c-.83,1.16-.53,2.14.28,3.16A20.21,20.21,0,0,1,57.32,40.1ZM23.06,29.82c1,.24,2,.5,3,.67a1.78,1.78,0,0,1,1.51,1.38A29.71,29.71,0,0,0,29,35.37,1.71,1.71,0,0,1,29,37.26c-.6.89-1.15,1.8-1.62,2.54l1.94,2c.85-.54,1.74-1.09,2.61-1.67a1.67,1.67,0,0,1,1.82-.07,32.94,32.94,0,0,0,3.58,1.49A1.76,1.76,0,0,1,38.65,43c.19,1,.44,2,.67,3.06h2.74c.23-1.06.47-2.09.68-3.14A1.67,1.67,0,0,1,44,41.62c1.24-.44,2.46-1,3.66-1.52a1.65,1.65,0,0,1,1.82.06c.88.59,1.79,1.15,2.65,1.7l2-2C53.53,39,53,38.14,52.4,37.27a1.69,1.69,0,0,1,0-1.89,30.36,30.36,0,0,0,1.45-3.5,1.79,1.79,0,0,1,1.51-1.38c1-.18,2-.45,3-.67V27.1c-1-.23-2-.5-2.93-.65A1.85,1.85,0,0,1,53.77,25a18.26,18.26,0,0,0-1.32-3.2,1.92,1.92,0,0,1,.1-2.33c.57-.79,1.06-1.64,1.5-2.34l-1.86-2c-.95.61-1.86,1.17-2.76,1.76a1.61,1.61,0,0,1-1.74.07A39.26,39.26,0,0,0,44,15.31,1.67,1.67,0,0,1,42.74,14c-.17-.86-.33-1.72-.57-2.56a.84.84,0,0,0-.55-.55c-.75-.07-1.51,0-2.3,0-.24,1.09-.48,2.11-.68,3.13a1.72,1.72,0,0,1-1.29,1.39,32.87,32.87,0,0,0-3.58,1.48,1.72,1.72,0,0,1-1.9-.06c-.88-.6-1.79-1.15-2.62-1.68l-2,1.9c.59.93,1.14,1.84,1.74,2.73a1.67,1.67,0,0,1,.05,1.82,32.19,32.19,0,0,0-1.5,3.58,1.75,1.75,0,0,1-1.45,1.33c-1,.19-2,.44-3,.67Z"/><path class="cls-1" d="M3,54.22A3.91,3.91,0,0,0,6.43,57,5.76,5.76,0,0,0,7,57H74.35a3.94,3.94,0,0,0,4.05-2.75H50.86a5.89,5.89,0,0,1-.84,0,1.33,1.33,0,0,1,0-2.63,3.87,3.87,0,0,1,.68,0H79.51c1.51,0,2,.62,1.82,2.12a6.77,6.77,0,0,1-6.89,6H6.94a6.76,6.76,0,0,1-6.89-6c-.22-1.51.3-2.13,1.8-2.13H30.69a3.75,3.75,0,0,1,.67,0,1.33,1.33,0,0,1,0,2.63,4.69,4.69,0,0,1-.84,0H3Z"/><path class="cls-1" d="M40.65,38a9.51,9.51,0,0,1-.81-19,9.48,9.48,0,0,1,10.19,8,7.81,7.81,0,0,1,.13,1.27,1.34,1.34,0,1,1-2.67,0,6.81,6.81,0,0,0-11.41-4.91A6.81,6.81,0,0,0,41.8,35.19c1-.16,1.61.22,1.76,1s-.33,1.46-1.31,1.61C41.72,37.88,41.19,37.92,40.65,38Z"/><path class="cls-1" d="M47.48,32.75a1.37,1.37,0,0,1,1.32,1.37,1.33,1.33,0,0,1-2.66,0A1.38,1.38,0,0,1,47.48,32.75Z"/></svg>