<svg id="Warstwa_1" data-name="Warstwa 1" xmlns="http://www.w3.org/2000/svg" width="21.47mm" height="21.47mm" viewBox="0 0 60.85 60.86"><defs><style>.cls-1{fill:#5db2ff;}</style></defs><path class="cls-1" d="M50.73,10.14H2V57.48c0,1,.32,1.37,1.35,1.37h46c.94,0,1.19-.2,1.36-1.11a1,1,0,0,1,1.11-.9A1,1,0,0,1,52.73,58a3.07,3.07,0,0,1-2.86,2.88H3.46C1.18,60.85,0,59.67,0,57.37V3.47C0,1.18,1.18,0,3.48,0H49.26c2.29,0,3.47,1.18,3.47,3.48V18.76c0,.15,0,.29,0,.44a1,1,0,0,1-1,1.06,1,1,0,0,1-1-1.05c0-1.27,0-2.54,0-3.8Zm0-2.05V3.55c0-1.29-.26-1.55-1.55-1.55H4C2.1,2,2,2.1,2,4V8.09Z"/><path class="cls-1" d="M60.85,38.54A16.22,16.22,0,1,1,44.62,22.32,16.26,16.26,0,0,1,60.85,38.54ZM44.65,24.32a14.23,14.23,0,1,0,14.2,14.26A14.23,14.23,0,0,0,44.65,24.32Z"/><path class="cls-1" d="M20.72,28.38H13.63c-.15,0-.3,0-.45,0a1,1,0,0,1,0-2,4.13,4.13,0,0,1,.5,0H28.23c.7,0,1.15.41,1.16,1a1,1,0,0,1-1.13,1c-.13,0-.26,0-.38,0Z"/><path class="cls-1" d="M20.29,48.68H13.51a2.64,2.64,0,0,1-.63-.06.93.93,0,0,1-.69-1A1,1,0,0,1,13,46.7a2.1,2.1,0,0,1,.5,0H27.33a1,1,0,0,1,1.05,1,1,1,0,0,1-1.07,1c-1.47,0-2.95,0-4.43,0Z"/><path class="cls-1" d="M19.7,32.44H13.31a1,1,0,1,1,0-2c.36,0,.72,0,1.08,0H26.07c.81,0,1.28.37,1.29,1s-.46,1-1.26,1H19.7Z"/><path class="cls-1" d="M19.33,42.62h5.76c.79,0,1.27.39,1.26,1s-.48,1-1.23,1H13.4c-.75,0-1.21-.38-1.22-1s.46-1,1.26-1Z"/><path class="cls-1" d="M40.57,20.26H35.82c-.85,0-1.33-.37-1.32-1s.48-1,1.29-1h9.56c.81,0,1.28.36,1.29,1s-.47,1-1.32,1Z"/><path class="cls-1" d="M17.29,18.27h3.8c.74,0,1.2.4,1.2,1s-.47,1-1.22,1H13.41c-.75,0-1.22-.37-1.23-1s.46-1,1.25-1Z"/><path class="cls-1" d="M17.23,40.56H13.37c-.74,0-1.21-.42-1.19-1s.46-1,1.17-1h7.78a1,1,0,1,1,0,2Z"/><path class="cls-1" d="M28.45,18.27h2.78c.74,0,1.21.4,1.2,1s-.46,1-1.21,1H25.53a1,1,0,0,1-1.18-1c0-.6.45-1,1.19-1Z"/><path class="cls-1" d="M30.43,24.32H27.58c-.74,0-1.2-.4-1.2-1s.47-1,1.22-1h5.63c.76,0,1.22.37,1.23,1s-.46,1-1.25,1Z"/><path class="cls-1" d="M29.41,50.74c.63,0,1.26,0,1.9,0a1,1,0,0,1,1.12,1,1,1,0,0,1-1.09,1c-1.29,0-2.57,0-3.86,0a1,1,0,0,1-1.1-1,1,1,0,0,1,1.13-1C28.14,50.73,28.78,50.74,29.41,50.74Z"/><path class="cls-1" d="M15.14,52.74c-.61,0-1.22,0-1.83,0a1,1,0,1,1,0-2c1.28,0,2.57,0,3.85,0a1,1,0,1,1,0,2C16.45,52.75,15.79,52.74,15.14,52.74Z"/><path class="cls-1" d="M15.18,24.32H13.29a1,1,0,1,1,0-2h3.79a1,1,0,1,1,0,2Z"/><path class="cls-1" d="M23.38,34.5h1.84a1,1,0,0,1,1.13,1,1,1,0,0,1-1.1,1H21.39a1,1,0,0,1-1.09-1,1,1,0,0,1,1.13-1Z"/><path class="cls-1" d="M15.2,36.5h-2a1,1,0,0,1-1.06-1,1,1,0,0,1,1-1c1.32,0,2.65,0,4,0a1,1,0,0,1,1,1,1,1,0,0,1-1.07,1Z"/><path class="cls-1" d="M8.1,32.44c-.34,0-.68,0-1,0a1,1,0,0,1-1-1,1,1,0,0,1,1-1c.7,0,1.39,0,2.09,0a1,1,0,0,1,1,1,1,1,0,0,1-1,1C8.77,32.46,8.43,32.44,8.1,32.44Z"/><path class="cls-1" d="M8.1,36.5c-.34,0-.67,0-1,0a1,1,0,0,1-1-1,1,1,0,0,1,1-1c.69,0,1.39,0,2.08,0a1,1,0,0,1,1,1,1,1,0,0,1-1,1C8.78,36.52,8.44,36.5,8.1,36.5Z"/><path class="cls-1" d="M8.08,28.38c-.34,0-.68,0-1,0a1,1,0,0,1-1-1,1,1,0,0,1,1-1c.67,0,1.34,0,2,0a1,1,0,0,1,1,1,1,1,0,0,1-1,1C8.75,28.4,8.41,28.38,8.08,28.38Z"/><path class="cls-1" d="M22.36,22.33c.34,0,.67,0,1,0a1,1,0,0,1,.95,1,1,1,0,0,1-1,1c-.69,0-1.39,0-2.08,0a1,1,0,0,1-1-1,1,1,0,0,1,1-1c.35,0,.71,0,1.07,0Z"/><path class="cls-1" d="M8.1,38.56c.34,0,.68,0,1,0a1,1,0,0,1,0,2c-.69,0-1.39,0-2.08,0a1,1,0,0,1-1-1,1,1,0,0,1,1-1C7.43,38.55,7.76,38.56,8.1,38.56Z"/><path class="cls-1" d="M8.08,24.32c-.34,0-.68,0-1,0a1,1,0,0,1,0-2c.68,0,1.35,0,2,0a1,1,0,0,1,1,1,1,1,0,0,1-1,1C8.75,24.34,8.41,24.32,8.08,24.32Z"/><path class="cls-1" d="M8.15,44.62c-.36,0-.72,0-1.07,0a1,1,0,0,1-1-1,1,1,0,0,1,1-1c.7,0,1.39,0,2.09,0a1,1,0,0,1,.95,1,1,1,0,0,1-.95,1C8.83,44.64,8.49,44.61,8.15,44.62Z"/><path class="cls-1" d="M8.1,18.27c.34,0,.68,0,1,0a1,1,0,0,1,1,1,1,1,0,0,1-1,1c-.69,0-1.39,0-2.08,0a1,1,0,0,1-1-1,1,1,0,0,1,1-1C7.43,18.25,7.76,18.27,8.1,18.27Z"/><path class="cls-1" d="M8.05,48.67c-.33,0-.67,0-1,0a1,1,0,0,1-1-1,1,1,0,0,1,1-1,19.1,19.1,0,0,1,2.14,0,.93.93,0,0,1,.92.95,1,1,0,0,1-.92,1C8.81,48.7,8.43,48.67,8.05,48.67Z"/><path class="cls-1" d="M14.19,16.2c-.33,0-.67,0-1,0a1,1,0,0,1-1-1,1,1,0,0,1,1-1c.7,0,1.39,0,2.09,0a1,1,0,0,1,1,1,1,1,0,0,1-1,1C14.87,16.22,14.53,16.2,14.19,16.2Z"/><path class="cls-1" d="M8.08,52.73c-.34,0-.68,0-1,0a1,1,0,1,1,0-2c.67,0,1.34,0,2,0a1,1,0,1,1,0,2C8.75,52.75,8.41,52.74,8.08,52.73Z"/><path class="cls-1" d="M8.06,16.2c-.34,0-.68,0-1,0a1,1,0,0,1-1-1,1,1,0,0,1,1-1c.72,0,1.43,0,2.15,0a1,1,0,0,1,.92,1,1,1,0,0,1-.92,1A10.63,10.63,0,0,1,8.06,16.2Z"/><path class="cls-1" d="M22.36,50.74c.33,0,.67,0,1,0a1,1,0,0,1,0,2,19.1,19.1,0,0,1-2.14,0,.94.94,0,0,1-.92-.95,1,1,0,0,1,.92-1h1.14Z"/><path class="cls-1" d="M26.35,39.57a1,1,0,1,1-2,0,1,1,0,0,1,1-1A1,1,0,0,1,26.35,39.57Z"/><path class="cls-1" d="M5.05,4.06a1,1,0,1,1,0,2,1,1,0,0,1-1-1A1,1,0,0,1,5.05,4.06Z"/><path class="cls-1" d="M13.2,4.06a1,1,0,1,1-1,1A1,1,0,0,1,13.2,4.06Z"/><path class="cls-1" d="M9.09,4.06a1,1,0,1,1,0,2,1,1,0,0,1-1-1A1,1,0,0,1,9.09,4.06Z"/><path class="cls-1" d="M55.6,38.59a11,11,0,1,1-11-11A11,11,0,0,1,55.6,38.59ZM42.29,29.24l-.41.11A9.62,9.62,0,0,0,35,39.26a9.41,9.41,0,0,0,2.31,5.56c.08.1.27.21.36.17.69-.24,1.35-.52,2-.79a13.62,13.62,0,0,1-1.28-4.9c-.45,0-.86,0-1.28,0a.68.68,0,0,1-.75-.69c0-.39.3-.63.76-.64h1.28a13.37,13.37,0,0,1,1.26-5,2,2,0,0,1-.36-.2.64.64,0,0,1-.2-.84.65.65,0,0,1,.84-.32c.18,0,.35.19.53-.06C41.1,30.76,41.69,30,42.29,29.24Zm7.14,8.7a11.29,11.29,0,0,0-1.07-4.25c0-.08-.23-.14-.34-.13a18.78,18.78,0,0,1-6.6-.23c-.25-.06-.41,0-.49.24-.31,1-.65,2-.93,3a9.94,9.94,0,0,0-.18,1.39Zm-9.59,1.39a12,12,0,0,0,1.1,4.26c.12.27.29.25.51.21A18.31,18.31,0,0,1,48,43.58c.24,0,.34,0,.41-.24.19-.53.44-1.06.58-1.61.19-.77.32-1.57.48-2.4Zm9.83-6.06a13.88,13.88,0,0,1,1.12,4.65h3.43a9.42,9.42,0,0,0-2-5.29.35.35,0,0,0-.28-.08Zm1.24,6L49.8,43.9c.64.21,1.38.46,2.13.68a.41.41,0,0,0,.32-.17c.49-.85,1-1.69,1.41-2.58a6.75,6.75,0,0,0,.54-2.51ZM47.56,32.2a11.65,11.65,0,0,0-2.94-3.08A11.53,11.53,0,0,0,41.84,32,14.91,14.91,0,0,0,47.56,32.2Zm-5.7,12.88A9.3,9.3,0,0,0,44.67,48a11.32,11.32,0,0,0,2.9-3.1A17.08,17.08,0,0,0,41.86,45.08Zm9.22-13.65A9.62,9.62,0,0,0,47,29.25c.64.86,1.26,1.7,1.9,2.54a.39.39,0,0,0,.3.16C49.8,31.8,50.39,31.63,51.08,31.43Zm-4.2,16.48a9.61,9.61,0,0,0,4.19-2.22c-.68-.19-1.25-.37-1.83-.5-.1,0-.28.08-.36.18-.29.39-.54.81-.84,1.19S47.31,47.42,46.88,47.91Zm-4.6,0c-.6-.79-1.18-1.56-1.77-2.32a.33.33,0,0,0-.26-.07l-1.63.56A9.35,9.35,0,0,0,42.28,47.89Z"/></svg>