<svg id="Warstwa_1" data-name="Warstwa 1" xmlns="http://www.w3.org/2000/svg" width="21.47mm" height="18.97mm" viewBox="0 0 60.85 53.77"><defs><style>.cls-1{fill:#5db2ff;}</style></defs><path class="cls-1" d="M14.12,27.4V10.53c0-.24-.08-.55,0-.71A2.17,2.17,0,0,1,15,9a.84.84,0,0,1,1.09.61,3.2,3.2,0,0,1,.11.93q0,7.94,0,15.88v1H55a5.63,5.63,0,0,1,5.65,4.15,6.66,6.66,0,0,1,.2,1.73c0,3.22,0,6.45,0,9.68a5.81,5.81,0,0,1-4.69,5.31,10.64,10.64,0,0,1-1.38.08c-16.25,0-32.5,0-48.75,0a5.92,5.92,0,0,1-6-6c.11-3,.09-6,0-9a5.8,5.8,0,0,1,5.92-5.92c2.4.1,4.81,0,7.21,0ZM30.5,29.5h-9c-5.3,0-10.59,0-15.89,0a3.19,3.19,0,0,0-3.5,3.27c0,3.4,0,6.8,0,10.2A3,3,0,0,0,4,45.89a5.26,5.26,0,0,0,2,.35q24.48,0,49,0c.22,0,.44,0,.66,0a3.16,3.16,0,0,0,3.13-3.19q0-5.1,0-10.2a3.21,3.21,0,0,0-1-2.48,3.63,3.63,0,0,0-2.62-.87Z"/><path class="cls-1" d="M1.11,9.47A14.2,14.2,0,0,1,4.16.78C4.77,0,5.37-.2,5.92.22s.54,1-.08,1.84A11.7,11.7,0,0,0,4.3,14.39,14.93,14.93,0,0,0,5.94,17c.5.74.53,1.31,0,1.73S4.8,19,4.26,18.35A14.26,14.26,0,0,1,1.11,9.47Z"/><path class="cls-1" d="M29.25,9.51a14.44,14.44,0,0,1-3.18,8.86c-.52.65-1.1.8-1.62.43s-.58-1.06-.05-1.72a11.75,11.75,0,0,0,2.7-8,11.61,11.61,0,0,0-2.39-6.74c-.13-.17-.28-.33-.41-.51A1.09,1.09,0,0,1,24.39.25,1.08,1.08,0,0,1,26,.52,14.42,14.42,0,0,1,29.25,9.51Z"/><path class="cls-1" d="M6.58,9.69a9.37,9.37,0,0,1,2.16-6c.5-.6,1.07-.71,1.58-.32s.54,1,0,1.66a6.71,6.71,0,0,0,0,8.91c.49.64.48,1.27,0,1.67s-1.12.26-1.64-.35A9.33,9.33,0,0,1,6.58,9.69Z"/><path class="cls-1" d="M23.73,10.09a8.65,8.65,0,0,1-2.08,5.16,1.13,1.13,0,0,1-1.64.36,1.12,1.12,0,0,1,0-1.67,6.73,6.73,0,0,0,0-8.87c-.5-.63-.5-1.26,0-1.67s1.09-.31,1.64.32A9.6,9.6,0,0,1,23.73,10.09Z"/><path class="cls-1" d="M50.57,51.65h4.37c.76,0,1.24.42,1.24,1A1.09,1.09,0,0,1,55,53.75q-4.37,0-8.74,0c-.77,0-1.21-.45-1.19-1.09s.46-1,1.25-1Z"/><path class="cls-1" d="M10.25,53.76c-1.46,0-2.92,0-4.37,0-1,0-1.56-.91-1-1.61a1.43,1.43,0,0,1,1-.47c2.93,0,5.87,0,8.81,0a1,1,0,0,1,1.16,1,1,1,0,0,1-1.13,1.07c-1.48,0-3,0-4.44,0Z"/><path class="cls-1" d="M54,37.87a1.72,1.72,0,0,1-1.74,1.75,1.75,1.75,0,0,1,0-3.49A1.72,1.72,0,0,1,54,37.87Z"/><path class="cls-1" d="M6.81,37.91a1.72,1.72,0,0,1,1.71-1.78,1.75,1.75,0,0,1,.06,3.49A1.72,1.72,0,0,1,6.81,37.91Z"/><path class="cls-1" d="M17,37.88a1.72,1.72,0,0,1-1.74,1.74,1.75,1.75,0,0,1,0-3.49A1.72,1.72,0,0,1,17,37.88Z"/><path class="cls-1" d="M30.56,37.88a1.72,1.72,0,0,1-1.75,1.74,1.75,1.75,0,0,1,0-3.49A1.72,1.72,0,0,1,30.56,37.88Z"/><path class="cls-1" d="M20.35,37.87A1.7,1.7,0,0,1,22,36.14a1.74,1.74,0,1,1,.05,3.48A1.71,1.71,0,0,1,20.35,37.87Z"/><path class="cls-1" d="M35.58,36.13a1.75,1.75,0,0,1,.05,3.49,1.75,1.75,0,0,1-.05-3.49Z"/></svg>