<svg id="Warstwa_1" data-name="Warstwa 1" xmlns="http://www.w3.org/2000/svg" width="28.71mm" height="21.04mm" viewBox="0 0 81.37 59.65"><defs><style>.cls-1{fill:#5db2ff;}</style></defs><path class="cls-1" d="M40.7,0H71.39c2.94,0,4.55,1.62,4.55,4.56v42.3a4.79,4.79,0,0,1,0,.76,1.33,1.33,0,0,1-1.34,1.17,1.3,1.3,0,0,1-1.28-1.15,3.92,3.92,0,0,1,0-.84V4.67c0-1.62-.37-2-2-2H10.07c-1.59,0-2,.38-2,2v42c0,.25,0,.51,0,.76a1.33,1.33,0,0,1-2.66,0c0-.22,0-.45,0-.68V4.55C5.43,1.61,7.05,0,10,0Z"/><path class="cls-1" d="M57.32,40.1a5.77,5.77,0,0,1-.66,1.1c-1,1.11-2.15,2.17-3.22,3.25a1.39,1.39,0,0,1-1.92.19c-.85-.55-1.69-1.12-2.57-1.63a1.32,1.32,0,0,0-.9-.06,17,17,0,0,1-1.72.72,1.63,1.63,0,0,0-1.39,1.61c-.11.81-.34,1.6-.51,2.4A1.31,1.31,0,0,1,43,48.79c-1.58,0-3.17,0-4.75,0A1.27,1.27,0,0,1,37,47.72c-.22-.94-.49-1.87-.62-2.81a1.22,1.22,0,0,0-1-1.14A4.27,4.27,0,0,1,34,43.23a1.69,1.69,0,0,0-2.27.19,18.93,18.93,0,0,1-1.91,1.24A1.37,1.37,0,0,1,28,44.47l-3.3-3.3a1.36,1.36,0,0,1-.17-1.84c.53-.84,1.05-1.68,1.61-2.49a.92.92,0,0,0,0-1.15,2.64,2.64,0,0,1-.45-1,2.41,2.41,0,0,0-2.55-2.13,14.8,14.8,0,0,1-1.58-.33,1.4,1.4,0,0,1-1.22-1.56q0-2.21,0-4.41a1.4,1.4,0,0,1,1.23-1.56c1-.2,1.94-.38,2.89-.66a1.49,1.49,0,0,0,.78-.71c.3-.54.39-1.2.73-1.7a1.5,1.5,0,0,0-.16-2c-.47-.63-.85-1.33-1.29-2a1.42,1.42,0,0,1,.19-2q1.61-1.57,3.18-3.18a1.41,1.41,0,0,1,2-.19c.83.54,1.65,1.1,2.51,1.58a1.46,1.46,0,0,0,1,0c.41-.1.76-.42,1.17-.49a2.3,2.3,0,0,0,2-2.44A11.49,11.49,0,0,1,37,9.21,1.27,1.27,0,0,1,38.3,8.15c1.58,0,3.17,0,4.75,0a1.3,1.3,0,0,1,1.38,1.12c.21,1,.46,1.93.64,2.9a1,1,0,0,0,.8.93,10.63,10.63,0,0,1,2,.85,1,1,0,0,0,1.22-.1c.79-.54,1.61-1.05,2.42-1.56a1.39,1.39,0,0,1,1.91.21c1.06,1.07,2.11,2.13,3.18,3.18a1.41,1.41,0,0,1,.22,2c-.51.78-1,1.59-1.52,2.34a1.11,1.11,0,0,0,0,1.38,4.11,4.11,0,0,1,.57,1.31c.18,1.09.85,1.45,1.85,1.57.72.08,1.43.31,2.15.46A1.35,1.35,0,0,1,61,26.15c0,1.55,0,3.1,0,4.66a1.3,1.3,0,0,1-1.1,1.39c-1,.22-2,.47-3,.65a1,1,0,0,0-.86.78,3,3,0,0,1-.42,1.1c-.83,1.16-.53,2.14.28,3.16A20.21,20.21,0,0,1,57.32,40.1ZM23.06,29.82c1,.24,2,.5,3,.67a1.78,1.78,0,0,1,1.51,1.38A29.71,29.71,0,0,0,29,35.37,1.71,1.71,0,0,1,29,37.26c-.6.89-1.15,1.8-1.62,2.54l1.94,2c.85-.54,1.74-1.09,2.61-1.67a1.67,1.67,0,0,1,1.82-.07,32.94,32.94,0,0,0,3.58,1.49A1.76,1.76,0,0,1,38.65,43c.19,1,.44,2,.67,3.06h2.74c.23-1.06.47-2.09.68-3.14A1.67,1.67,0,0,1,44,41.62c1.24-.44,2.46-1,3.66-1.52a1.65,1.65,0,0,1,1.82.06c.88.59,1.79,1.15,2.65,1.7l2-2C53.53,39,53,38.14,52.4,37.27a1.69,1.69,0,0,1,0-1.89,30.36,30.36,0,0,0,1.45-3.5,1.79,1.79,0,0,1,1.51-1.38c1-.18,2-.45,3-.67V27.1c-1-.23-2-.5-2.93-.65A1.85,1.85,0,0,1,53.77,25a18.26,18.26,0,0,0-1.32-3.2,1.92,1.92,0,0,1,.1-2.33c.57-.79,1.06-1.64,1.5-2.34l-1.86-2c-.95.61-1.86,1.17-2.76,1.76a1.61,1.61,0,0,1-1.74.07A39.26,39.26,0,0,0,44,15.31,1.67,1.67,0,0,1,42.74,14c-.17-.86-.33-1.72-.57-2.56a.84.84,0,0,0-.55-.55c-.75-.07-1.51,0-2.3,0-.24,1.09-.48,2.11-.68,3.13a1.72,1.72,0,0,1-1.29,1.39,32.87,32.87,0,0,0-3.58,1.48,1.72,1.72,0,0,1-1.9-.06c-.88-.6-1.79-1.15-2.62-1.68l-2,1.9c.59.93,1.14,1.84,1.74,2.73a1.67,1.67,0,0,1,.05,1.82,32.19,32.19,0,0,0-1.5,3.58,1.75,1.75,0,0,1-1.45,1.33c-1,.19-2,.44-3,.67Z"/><path class="cls-1" d="M3,54.22A3.91,3.91,0,0,0,6.43,57,5.76,5.76,0,0,0,7,57H74.35a3.94,3.94,0,0,0,4.05-2.75H50.86a5.89,5.89,0,0,1-.84,0,1.33,1.33,0,0,1,0-2.63,3.87,3.87,0,0,1,.68,0H79.51c1.51,0,2,.62,1.82,2.12a6.77,6.77,0,0,1-6.89,6H6.94a6.76,6.76,0,0,1-6.89-6c-.22-1.51.3-2.13,1.8-2.13H30.69a3.75,3.75,0,0,1,.67,0,1.33,1.33,0,0,1,0,2.63,4.69,4.69,0,0,1-.84,0H3Z"/><path class="cls-1" d="M40.7,18.68l.2.22a31.89,31.89,0,0,1,4.59,5.64,13.11,13.11,0,0,1,1.69,3.78,6.67,6.67,0,1,1-13,3,6.76,6.76,0,0,1,.3-3.88,17.33,17.33,0,0,1,2.34-4.26,35.08,35.08,0,0,1,3.74-4.34,1.58,1.58,0,0,0,.12-.15Zm0,1.54-.1.12a30.54,30.54,0,0,0-3,3.68,16.77,16.77,0,0,0-2,3.51,5.89,5.89,0,0,0-.36,3.54,5.58,5.58,0,0,0,9,3,5.3,5.3,0,0,0,1.9-5.15,9.2,9.2,0,0,0-1.1-2.9,25.45,25.45,0,0,0-3.18-4.46C41.51,21.12,41.11,20.69,40.69,20.22Z"/><path class="cls-1" d="M40.71,36.85a7.15,7.15,0,0,1-2.63-.51,7,7,0,0,1-3.93-9A17,17,0,0,1,36.53,23a34.53,34.53,0,0,1,3.78-4.4.15.15,0,0,0,0-.06l0-.05.1-.13h.35l.16.19.12.13a31.94,31.94,0,0,1,4.64,5.7,13.34,13.34,0,0,1,1.72,3.88,7,7,0,0,1-6.79,8.61Zm0-17.68a32.91,32.91,0,0,0-3.61,4.2,16.69,16.69,0,0,0-2.29,4.17,6.39,6.39,0,0,0-.29,3.69A6.34,6.34,0,1,0,46.85,28.4a12.86,12.86,0,0,0-1.65-3.68A31,31,0,0,0,40.69,19.17Zm0,16.58a6,6,0,0,1-1.86-.3,5.91,5.91,0,0,1-3.93-4.3,6.24,6.24,0,0,1,.37-3.74,16.75,16.75,0,0,1,2-3.59,32,32,0,0,1,3.06-3.71l0,0,.3-.38.27.3.39.44c.29.31.56.6.83.91a25.52,25.52,0,0,1,3.22,4.53,9.25,9.25,0,0,1,1.13,3,5.61,5.61,0,0,1-2,5.46A5.81,5.81,0,0,1,40.7,35.75Zm0-15a29.8,29.8,0,0,0-2.85,3.48,16.38,16.38,0,0,0-1.93,3.44A5.57,5.57,0,0,0,35.57,31a5.27,5.27,0,0,0,3.49,3.82,5.16,5.16,0,0,0,5-1A5,5,0,0,0,45.84,29a9,9,0,0,0-1.05-2.78,24.47,24.47,0,0,0-3.15-4.41l-.81-.91Z"/><path class="cls-1" d="M41.71,32.3v1.09A4.46,4.46,0,0,1,37.28,29h1.09a3.43,3.43,0,0,0,1,2.34A3.37,3.37,0,0,0,41.71,32.3Z"/><path class="cls-1" d="M42.05,33.73h-.34A4.8,4.8,0,0,1,36.94,29v-.35H38.7V29a3.06,3.06,0,0,0,3,3h.32ZM37.64,29.3a4,4,0,0,0,1.46,2.79,3.94,3.94,0,0,0,2.27.94v-.42a3.7,3.7,0,0,1-3.31-3.31Z"/></svg>