<svg id="Warstwa_1" data-name="Warstwa 1" xmlns="http://www.w3.org/2000/svg" width="28.29mm" height="23.7mm" viewBox="0 0 80.19 67.19"><defs><style>.cls-1{fill:#5db2ff;}</style></defs><path class="cls-1" d="M23,38.17H25.3c0-.75,0-1.5,0-2.25a1.42,1.42,0,0,1,1-1.33c.57-.19,1.38.5,1.4,1.17s0,1.55,0,2.37h2.33V35.9a1.42,1.42,0,0,1,1.06-1.32c.45-.15,1.39.5,1.39,1.28s0,1.5,0,2.29h2.33c0-.73,0-1.48,0-2.23a1.46,1.46,0,0,1,1-1.33c.46-.17,1.39.47,1.4,1.25s0,1.51,0,2.3h2.33v-2.2a1.34,1.34,0,0,1,1.24-1.37A1.39,1.39,0,0,1,42.08,36c0,.68,0,1.36,0,2a.79.79,0,0,0,0,.13h2.27V36a1.3,1.3,0,0,1,1-1.43,1.33,1.33,0,0,1,1.48,1.22c0,.76,0,1.52,0,2.32h2.33c0-.76,0-1.53,0-2.3a1.36,1.36,0,0,1,1.1-1.27,1.38,1.38,0,0,1,1.34,1.27c0,.76,0,1.51,0,2.34h.95c1,0,1.38.38,1.38,1.35Q54,47.75,54,56c0,.93-.39,1.32-1.34,1.33h-1c0,.7,0,1.36,0,2a1.54,1.54,0,0,1-.93,1.55c-.54.3-1.49-.39-1.53-1.12,0-.4,0-.81,0-1.22V57.33H46.86c0,.74,0,1.48,0,2.23a1.45,1.45,0,0,1-1,1.34c-.57.18-1.39-.51-1.4-1.18s0-1.55,0-2.37H42.08c0,.67,0,1.37,0,2.06a1.51,1.51,0,0,1-1,1.47c-.56.27-1.46-.45-1.49-1.18,0-.38,0-.77,0-1.16v-1.2H37.3a21.25,21.25,0,0,1,0,2.26,1.64,1.64,0,0,1-.57,1,1.19,1.19,0,0,1-1.85-1c0-.73,0-1.47,0-2.25H32.53a18.47,18.47,0,0,1,0,2.23,1.71,1.71,0,0,1-.61,1.07,1.17,1.17,0,0,1-1.81-1c0-.74,0-1.47,0-2.21,0,0,0,0-.08-.11H27.75v2.15a1.32,1.32,0,0,1-1,1.44,1.34,1.34,0,0,1-1.47-1.23c0-.76,0-1.51,0-2.31H23v2.18a1.32,1.32,0,0,1-1.21,1.38,1.37,1.37,0,0,1-1.23-1.39c0-.71,0-1.43,0-2.22h-1c-.94,0-1.32-.4-1.32-1.35q0-8.22,0-16.43c0-.94.39-1.33,1.34-1.34h1c0-.71,0-1.39,0-2.06a2.36,2.36,0,0,1,.24-.91,1.07,1.07,0,0,1,1.17-.62,1.31,1.31,0,0,1,1,1.15C23,36.53,23,37.32,23,38.17ZM20.55,54.81h31V40.66h-31Z"/><path class="cls-1" d="M68.3,37.37V61c0,.94-.41,1.43-1.19,1.44a1.31,1.31,0,0,1-1.26-1.18V13.75c0-1,.59-1.56,1.44-1.46a1.2,1.2,0,0,1,1,1,5.56,5.56,0,0,1,0,.58Z"/><path class="cls-1" d="M73.08,18.22c0,2.82,0,5.54,0,8.25a1.2,1.2,0,0,1-1.75,1.17,1.55,1.55,0,0,1-.68-1c0-3.2,0-6.41,0-9.61a1.17,1.17,0,0,1,1.11-1.1c.87,0,1.75,0,2.62,0a1,1,0,0,1,1,1.13,1,1,0,0,1-1.06,1.18C73.94,18.24,73.54,18.22,73.08,18.22Z"/><path class="cls-1" d="M73.08,36.18c0,1.53,0,3.07,0,4.6,0,.87-.45,1.35-1.22,1.34a1.27,1.27,0,0,1-1.22-1.34q0-4.62,0-9.26a1.27,1.27,0,0,1,1.24-1.29,1.13,1.13,0,0,1,1.21,1.29C73.08,33.07,73.08,34.63,73.08,36.18Z"/><path class="cls-1" d="M9.83,62.45a1.21,1.21,0,0,1-1.11-.81A1,1,0,0,1,9,60.38c.57-.49,1.09-1,1.69-1.48.44-.35.86,0,1.15.29s.65.73.33,1.16a20.06,20.06,0,0,1-1.69,1.88C10.33,62.38,10.05,62.38,9.83,62.45Z"/><path class="cls-1" d="M63.68,13.42a4.84,4.84,0,0,1-.52.87,18.52,18.52,0,0,1-1.68,1.5c-.44.34-.86,0-1.15-.3s-.66-.72-.33-1.15a11.5,11.5,0,0,1,1.69-1.86,1.27,1.27,0,0,1,1.14-.07C63.18,12.59,63.38,13,63.68,13.42Z"/><path class="cls-1" d="M63.54,61.2a1.14,1.14,0,0,1-.76,1.12A1,1,0,0,1,61.47,62c-.46-.54-.92-1.08-1.4-1.6s-.07-.88.19-1.15.81-.54,1.07-.43a5.09,5.09,0,0,1,2.1,1.91A1.58,1.58,0,0,1,63.54,61.2Z"/><path class="cls-1" d="M73.2,57.14a4.43,4.43,0,0,1-.44,1.17,1.16,1.16,0,0,1-2.08-.4,2.76,2.76,0,0,1,.18-2.06,1.14,1.14,0,0,1,1.34-.51,1,1,0,0,1,.87,1c0,.25,0,.51,0,.76Z"/><path class="cls-1" d="M32.49,52.52c-2.74,0-5.47,0-8.21,0a1.21,1.21,0,0,1-1.18-1.76,1.25,1.25,0,0,1,1.16-.7H40.62a1.48,1.48,0,0,1,1.43,1c.23.46-.45,1.47-1.06,1.45-.35,0-.7,0-1,0Z"/><path class="cls-1" d="M14.41,0c.44,1.14.11,2.36,1.7,3s2.19-.52,3.14-.89l3.21,3.2a.83.83,0,0,1-.16.26,2.45,2.45,0,0,0-.36,3.47,1.48,1.48,0,0,0,.72.58c1.91.41,1.91.4,1.91,2.33,0,.65,0,1.3,0,1.94,0,.41-.07.71-.55.69-1.68-.09-2.36,1-2.71,2.4a.94.94,0,0,0,.08.66c.34.55.73,1.06,1.05,1.51l-3.22,3.22a.79.79,0,0,1-.28-.18,2.5,2.5,0,0,0-3.54-.28,1.2,1.2,0,0,0-.45.6c-.16.65-.25,1.32-.38,2.08-1.41,0-2.81,0-4.22,0-.12,0-.33-.26-.33-.39.1-1.76-1-2.45-2.47-2.8a1,1,0,0,0-.66.09c-.58.34-1.12.73-1.61,1.06l-3.2-3.2c.33-.47.76-1,1.11-1.6a1.32,1.32,0,0,0,.1-.86A2.49,2.49,0,0,0,.57,14.7.75.75,0,0,1,0,14.22c0-1.34,0-2.68,0-4.06.66-.13,1.26-.29,1.87-.35s.6-.35.83-.71a2.66,2.66,0,0,0-.64-3.71L5.35,2.16a.45.45,0,0,1,.2.12,2.48,2.48,0,0,0,3.54.34,2.86,2.86,0,0,0,.5-.54.64.64,0,0,0,.06-.22c.12-.58.07-1.42.42-1.67S11.31.05,12,0C12.76,0,13.58,0,14.41,0ZM5.52,7.16a29.1,29.1,0,0,0-1.3,3.2,1.26,1.26,0,0,1-1.16,1.07c-1.35.24-1.35.27-1.26,1.62,0,0,0,.09.07.16.54.1,1.12.16,1.66.31A1,1,0,0,1,4.1,14c.47,1.11.88,2.24,1.38,3.52L4.36,19.21l1,1.06a9.36,9.36,0,0,0,1-.7,1.12,1.12,0,0,1,1.67-.08,3.24,3.24,0,0,0,1.55.71,2,2,0,0,1,1.9,2.12.7.7,0,0,0,.4.51c.94.24,1.23,0,1.37-.92a4.63,4.63,0,0,0,.12-.73c0-.43.24-.54.63-.67,1-.37,2-.85,3-1.25a1,1,0,0,1,.76,0,13.92,13.92,0,0,1,1.36.91l1.11-1.05c-.3-.44-.59-.91-.92-1.34a.68.68,0,0,1,0-.91,8.29,8.29,0,0,0,1.07-2.35,1.5,1.5,0,0,1,1.48-1.37C23,13,23,13,22.92,11.86a3.73,3.73,0,0,0,0-.41c-.6-.1-1.19-.17-1.76-.31a.84.84,0,0,1-.5-.42c-.47-1.18-.89-2.39-1.4-3.77l1.1-1.62-1-1.06c-.51.34-1,.65-1.44,1a.66.66,0,0,1-.85,0,12.44,12.44,0,0,0-2.56-1.14A1.29,1.29,0,0,1,13.29,3c-.23-1.37-.27-1.37-1.63-1.25a.49.49,0,0,0-.15.09c-.08.5-.2,1-.25,1.52S11,3.9,10.6,4c-1,.34-1.95.83-2.93,1.21a1.09,1.09,0,0,1-.83,0,13.11,13.11,0,0,1-1.43-1l-1,1.16Z"/><path class="cls-1" d="M12.2,18a5.72,5.72,0,0,1-5.62-5.7A5.65,5.65,0,1,1,12.2,18ZM8.48,12.26a3.82,3.82,0,0,0,7.64.29,4,4,0,0,0-3.86-4.16A3.78,3.78,0,0,0,8.48,12.26Z"/><path class="cls-1" d="M80.19,12.49a4.75,4.75,0,0,0-1.1-3.3,4.93,4.93,0,0,0-3.26-1.68c-.23,0-.46,0-.7,0H28.28a19.84,19.84,0,0,1-.14,2.33q23.52,0,47,0a2.83,2.83,0,0,1,2.71,2.69q-.06,24.83,0,49.66a2.84,2.84,0,0,1-2.74,2.72c-11,0-22.06,0-33.09,0H9a2.72,2.72,0,0,1-2.78-2.79q0-17.52,0-35a19.93,19.93,0,0,1-2.33-.43q0,17.71,0,35.43a5.32,5.32,0,0,0,.64,2.77,4.33,4.33,0,0,0,2,1.86l1.25.54H76.34a6.16,6.16,0,0,0,2.93-1.93,4.76,4.76,0,0,0,.91-2.48c0-.2,0-.39,0-.59Q80.18,37.33,80.19,12.49Z"/></svg>