<svg id="Warstwa_1" data-name="Warstwa 1" xmlns="http://www.w3.org/2000/svg" width="23.61mm" height="23.61mm" viewBox="0 0 66.92 66.93"><defs><style>.cls-1{fill:#5db2ff;}</style></defs><path class="cls-1" d="M6.7,35.73a4.34,4.34,0,0,0-4.08,2.52,4.45,4.45,0,0,0,.8,5,4.55,4.55,0,0,0,3.51,1.41H59a7.79,7.79,0,1,1,.07,15.58q-13.53,0-27.06,0h-.87c-.08.32-.15.61-.23.89a7.79,7.79,0,0,1-7.41,5.8c-2.11,0-4.23,0-6.35,0-1.23,0-1.55-.32-1.56-1.57v-.66H8.3c-1.07,0-1.61-.38-1.6-1.12s.54-1.08,1.63-1.08h7.24V55.76h-.71c-2.25,0-4.51,0-6.76,0-.88,0-1.41-.42-1.4-1.11s.52-1.08,1.41-1.08h7.52c0-.41,0-.76,0-1.1a1,1,0,0,1,1-1.11,74,74,0,0,1,7.74.1,7.5,7.5,0,0,1,6.68,6.18c0,.11.05.22.09.4H59.05a5.59,5.59,0,0,0,1.09-11.09,7.17,7.17,0,0,0-1.39-.1H6.86A6.68,6.68,0,0,1,6.09,33.5l.61-.06V29h-3c-1.11,0-1.49-.36-1.49-1.44V19.31c0-1.09.38-1.45,1.48-1.45h3V15.59h-3c-1,0-1.42-.38-1.42-1.44V5.85c0-1,.4-1.38,1.4-1.39H7.54c1,0,1.35.36,1.35,1.39V37.9H64.68V35.68h-3c-.89,0-1.41-.4-1.43-1.08s.52-1.12,1.45-1.12h3V31.21H61.42a1.06,1.06,0,0,1-1.13-.93A1,1,0,0,1,61,29.09a2,2,0,0,1,.69-.07h3v-.78q0-11.71,0-23.43a2.29,2.29,0,0,0-2.61-2.6H8.34c-1.1,0-1.62-.35-1.64-1.08S7.23,0,8.36,0H62.07a4.48,4.48,0,0,1,4.85,4.86V38.48c0,1.37-.29,1.66-1.68,1.66H8.39c-1.41,0-1.69-.28-1.69-1.72ZM17.87,53.66V64.72c1.9,0,3.75,0,5.61,0a5.62,5.62,0,0,0,5.52-5,5.41,5.41,0,0,0-4.42-6A53.54,53.54,0,0,0,17.87,53.66ZM6.65,13.37V6.71H4.48v6.66Zm0,13.39V20.1H4.48v6.66Z"/><path class="cls-1" d="M50.46,28.5c.13-.21.28-.42.41-.63l7-11.22a3.92,3.92,0,0,1,.42-.64,1,1,0,0,1,1.39-.21,1.06,1.06,0,0,1,.4,1.39,3.77,3.77,0,0,1-.28.48L49.11,34.8l-.18.3a1,1,0,0,1-1.38.47,1.06,1.06,0,0,1-.64-1.31q.84-4.23,1.7-8.46c.08-.39.15-.77.24-1.25l-.77,0c-1.47,0-2.93,0-4.39,0-1.12,0-1.61-.86-1-1.79q5.49-8.8,11-17.61a1,1,0,0,1,1.4-.54,1.08,1.08,0,0,1,.65,1.37L53.55,16.65c-.17.87-.69,1.3-1.35,1.14s-.94-.72-.77-1.59a44.89,44.89,0,0,0,.74-4.57L45.48,22.32h2c.84,0,1.68,0,2.51,0a1.13,1.13,0,0,1,1.22,1.5l-.93,4.63Z"/><path class="cls-1" d="M27.88,8.93a1.1,1.1,0,1,1-1.09,1.12A1.13,1.13,0,0,1,27.88,8.93Z"/><path class="cls-1" d="M33.44,10a1.1,1.1,0,1,1-1.12-1.09A1.13,1.13,0,0,1,33.44,10Z"/><path class="cls-1" d="M37.91,10a1.1,1.1,0,1,1-1.1-1.11A1.13,1.13,0,0,1,37.91,10Z"/><path class="cls-1" d="M15.59,14.49a1.13,1.13,0,0,1-1.11,1.1,1.1,1.1,0,0,1,0-2.2A1.13,1.13,0,0,1,15.59,14.49Z"/><path class="cls-1" d="M19,15.59a1.1,1.1,0,1,1,0-2.2,1.14,1.14,0,0,1,1.09,1A1.13,1.13,0,0,1,19,15.59Z"/><path class="cls-1" d="M24.51,14.52a1.1,1.1,0,1,1-1.08-1.13A1.13,1.13,0,0,1,24.51,14.52Z"/><path class="cls-1" d="M27.9,15.59a1.1,1.1,0,1,1,0-2.2,1.1,1.1,0,0,1,0,2.2Z"/><path class="cls-1" d="M33.44,14.49a1.1,1.1,0,1,1-1.12-1.1A1.12,1.12,0,0,1,33.44,14.49Z"/><path class="cls-1" d="M36.84,15.59a1.1,1.1,0,1,1,1.07-1.15A1.13,1.13,0,0,1,36.84,15.59Z"/><path class="cls-1" d="M24.51,10a1.1,1.1,0,1,1-2.19,0,1.1,1.1,0,0,1,2.19,0Z"/><path class="cls-1" d="M14.51,17.86A1.13,1.13,0,0,1,15.59,19a1.14,1.14,0,0,1-1.15,1.06,1.1,1.1,0,0,1,.07-2.19Z"/><path class="cls-1" d="M19,17.86A1.1,1.1,0,1,1,17.86,19,1.12,1.12,0,0,1,19,17.86Z"/><path class="cls-1" d="M24.51,18.94a1.1,1.1,0,1,1-1.12-1.08A1.12,1.12,0,0,1,24.51,18.94Z"/><path class="cls-1" d="M27.89,17.86a1.1,1.1,0,1,1-.05,2.19,1.1,1.1,0,0,1,.05-2.19Z"/><path class="cls-1" d="M32.34,17.86A1.1,1.1,0,1,1,31.25,19,1.13,1.13,0,0,1,32.34,17.86Z"/><path class="cls-1" d="M36.78,20.05A1.1,1.1,0,1,1,37.91,19,1.13,1.13,0,0,1,36.78,20.05Z"/><path class="cls-1" d="M19,8.93A1.1,1.1,0,1,1,17.86,10,1.13,1.13,0,0,1,19,8.93Z"/><path class="cls-1" d="M15.59,23.43a1.1,1.1,0,1,1-2.19-.06,1.11,1.11,0,0,1,1.09-1.05A1.13,1.13,0,0,1,15.59,23.43Z"/><path class="cls-1" d="M18.93,24.51a1.1,1.1,0,1,1,1.12-1.09A1.12,1.12,0,0,1,18.93,24.51Z"/><path class="cls-1" d="M23.45,22.32a1.1,1.1,0,1,1-1.13,1.08A1.13,1.13,0,0,1,23.45,22.32Z"/><path class="cls-1" d="M27.9,22.32a1.1,1.1,0,1,1-.07,2.19,1.1,1.1,0,0,1,.07-2.19Z"/><path class="cls-1" d="M33.44,23.39a1.1,1.1,0,1,1-2.19,0,1.1,1.1,0,0,1,2.19,0Z"/><path class="cls-1" d="M37.91,23.43a1.1,1.1,0,1,1-2.2-.06,1.1,1.1,0,0,1,2.2.06Z"/><path class="cls-1" d="M15.59,27.89A1.14,1.14,0,0,1,14.46,29a1.1,1.1,0,1,1,1.13-1.09Z"/><path class="cls-1" d="M19,26.79a1.11,1.11,0,0,1,1.1,1.1,1.1,1.1,0,1,1-1.1-1.1Z"/><path class="cls-1" d="M24.51,27.9a1.1,1.1,0,1,1-1.09-1.11A1.11,1.11,0,0,1,24.51,27.9Z"/><path class="cls-1" d="M27.94,26.79a1.09,1.09,0,1,1-1.15,1.06A1.11,1.11,0,0,1,27.94,26.79Z"/><path class="cls-1" d="M32.36,29a1.13,1.13,0,0,1-1.11-1.1,1.1,1.1,0,0,1,2.19,0A1.13,1.13,0,0,1,32.36,29Z"/><path class="cls-1" d="M36.83,26.79A1.1,1.1,0,1,1,36.75,29a1.14,1.14,0,0,1-1-1.11A1.12,1.12,0,0,1,36.83,26.79Z"/><path class="cls-1" d="M15.59,32.37a1.13,1.13,0,0,1-1.14,1.07,1.1,1.1,0,1,1,1.14-1.07Z"/><path class="cls-1" d="M19,33.44a1.1,1.1,0,1,1,1.08-1.13A1.12,1.12,0,0,1,19,33.44Z"/><path class="cls-1" d="M24.51,32.35a1.11,1.11,0,0,1-1.12,1.09,1.1,1.1,0,0,1,0-2.19A1.11,1.11,0,0,1,24.51,32.35Z"/><path class="cls-1" d="M29,32.36a1.1,1.1,0,1,1-2.19-.06,1.11,1.11,0,0,1,1.09-1A1.13,1.13,0,0,1,29,32.36Z"/><path class="cls-1" d="M32.38,31.25a1.1,1.1,0,1,1-1.13,1.08A1.13,1.13,0,0,1,32.38,31.25Z"/><path class="cls-1" d="M37.91,32.36a1.1,1.1,0,1,1-1.1-1.11A1.13,1.13,0,0,1,37.91,32.36Z"/><path class="cls-1" d="M14.52,8.93A1.1,1.1,0,1,1,13.4,10,1.13,1.13,0,0,1,14.52,8.93Z"/><path class="cls-1" d="M24.51,59.12a1.1,1.1,0,1,1-2.19,0A1.13,1.13,0,0,1,23.4,58,1.12,1.12,0,0,1,24.51,59.12Z"/></svg>