<svg id="Warstwa_1" data-name="Warstwa 1" xmlns="http://www.w3.org/2000/svg" width="24.44mm" height="23.91mm" viewBox="0 0 69.29 67.77"><defs><style>.cls-1{fill:#5db2ff;}</style></defs><path class="cls-1" d="M69.29,46.11C68.52,47.08,67.74,48,67,49a1.06,1.06,0,0,1-1,.47c-3,0-6,0-9,0-.73,0-1.32.07-1.7.77a2.37,2.37,0,0,1-.42.44c.16.22.32.46.49.68,2.52,3.39,5,6.77,7.56,10.17A3.8,3.8,0,0,1,62.27,67a3.74,3.74,0,0,1-5.66-1.23c-2-3.78-4-7.57-6-11.36-.11-.21-.24-.43-.31-.56a37.34,37.34,0,0,1-4.12.86A14.69,14.69,0,0,1,33.44,50a1.46,1.46,0,0,0-1.2-.54c-9.59,0-19.17,0-28.75,0A1.2,1.2,0,0,1,2.36,49c-.58-.83-1.21-1.63-1.86-2.4A2,2,0,0,1,0,45.09c0-.85,0-1.71,0-2.61H3.5V0H65.75V42.45h3.54Zm-7.5-33.73V27.83H54A15.49,15.49,0,0,1,59.33,42.4h4.79V9.28H5.18V42.51H29.29a15.91,15.91,0,0,1,5.32-14.73H31.48V12.38ZM33.08,26.11c.07,0,.11.07.15.07,1,0,1.94.06,2.91,0a4.39,4.39,0,0,0,1.6-.36A15,15,0,0,1,51.3,26a2,2,0,0,0,.76.2c2.62,0,5.23,0,7.85,0,.13,0,.25,0,.4,0V14H33.08ZM52.71,50.52C57.35,48.44,59.56,39.85,57,34.2A13.65,13.65,0,1,0,32.25,45.81a13.26,13.26,0,0,0,8.17,6.95,12.79,12.79,0,0,0,10.35-1.07l.38.7,6.51,12.17a6.67,6.67,0,0,0,.37.64,2.32,2.32,0,0,0,3.19.55,2.24,2.24,0,0,0,.42-3.08c-.27-.39-.56-.77-.84-1.15ZM64.12,7.6v-6H5.2v6ZM1.46,44.06l-.23.19a10.66,10.66,0,0,0,.63,1.47,13.64,13.64,0,0,0,1.29,1.73,1.22,1.22,0,0,0,.81.42q13.52,0,27,0c.18,0,.37,0,.53,0-.5-1.07-1-2.08-1.42-3.12-.2-.49-.39-.68-.95-.67q-13.52,0-27,0Zm66.73.26c-.19-.09-.23-.13-.27-.13-2.84,0-5.68,0-8.52,0a.51.51,0,0,0-.39.17c-.55,1.2-1.07,2.41-1.62,3.65,2.72,0,5.44,0,8.17,0a.92.92,0,0,0,.58-.35c.57-.73,1.13-1.47,1.64-2.24A5.22,5.22,0,0,0,68.19,44.32Z"/><path class="cls-1" d="M7.48,27.77V12.4H28.94V27.77Zm9.37-7.64-7.73-5.4V25.54Zm10.61,5.3V14.72l-7.73,5.41Zm-2,.73c-.08-.1-.11-.16-.16-.19-2.25-1.55-4.49-3.1-6.76-4.62a.81.81,0,0,0-.74,0c-2.16,1.47-4.3,3-6.45,4.47-.1.07-.18.16-.33.29ZM11.06,14a1.94,1.94,0,0,0,.19.22c2.22,1.55,4.43,3.1,6.67,4.62a.79.79,0,0,0,.74-.06c2.15-1.45,4.29-2.92,6.42-4.39a5.09,5.09,0,0,0,.46-.39Z"/><path class="cls-1" d="M28.24,31.71V33.2H7.64V31.71Z"/><path class="cls-1" d="M7.61,37.51V36H22.14v1.52Z"/><path class="cls-1" d="M46.22,28.58c.41,1,.11,2.14,1.55,2.71s2-.47,2.85-.81l2.91,2.9a1.22,1.22,0,0,1-.14.23,2.21,2.21,0,0,0-.33,3.15,1.28,1.28,0,0,0,.65.53c1.73.37,1.73.36,1.73,2.11,0,.59,0,1.18,0,1.76,0,.37-.06.65-.49.62-1.54-.07-2.15.9-2.46,2.18a.83.83,0,0,0,.07.6c.3.5.66,1,1,1.37L50.6,48.85a.55.55,0,0,1-.25-.16,2.27,2.27,0,0,0-3.22-.25,1,1,0,0,0-.4.54c-.15.59-.23,1.2-.35,1.89-1.27,0-2.55,0-3.83,0-.1,0-.3-.24-.29-.36.08-1.59-.92-2.21-2.24-2.54a.92.92,0,0,0-.61.09c-.52.31-1,.66-1.46,1l-2.9-2.9a16.77,16.77,0,0,0,1-1.46,1.19,1.19,0,0,0,.09-.77,2.27,2.27,0,0,0-2.48-2,.68.68,0,0,1-.49-.44c0-1.21,0-2.43,0-3.68.6-.12,1.14-.26,1.69-.32s.55-.31.75-.64A2.41,2.41,0,0,0,35,33.44l3-2.93s.09,0,.18.11a2.25,2.25,0,0,0,3.21.3,2.34,2.34,0,0,0,.45-.49.6.6,0,0,0,.06-.19c.11-.53.06-1.3.38-1.52s1.12-.13,1.7-.14C44.73,28.56,45.47,28.58,46.22,28.58ZM38.16,35A29,29,0,0,0,37,37.94a1.15,1.15,0,0,1-1,1c-1.23.22-1.23.24-1.15,1.47,0,0,0,.08.07.15a13.17,13.17,0,0,1,1.5.28.89.89,0,0,1,.51.46c.43,1,.81,2,1.26,3.2l-1,1.5,1,1c.33-.23.65-.4.92-.63a1,1,0,0,1,1.51-.07,3,3,0,0,0,1.4.64,1.75,1.75,0,0,1,1.73,1.92.61.61,0,0,0,.36.46c.85.22,1.11,0,1.24-.83a3.75,3.75,0,0,0,.11-.67c0-.38.22-.48.57-.6.92-.33,1.8-.78,2.72-1.14a.92.92,0,0,1,.69,0,14,14,0,0,1,1.24.83l1-1c-.27-.4-.53-.82-.83-1.21a.61.61,0,0,1,0-.83,7.58,7.58,0,0,0,1-2.13A1.36,1.36,0,0,1,53,40.5c1-.13,1-.19,1-1.19,0-.12,0-.22,0-.37-.54-.1-1.08-.16-1.6-.29a.77.77,0,0,1-.45-.38c-.42-1.08-.81-2.17-1.27-3.42l1-1.47-.94-1c-.45.31-.89.59-1.3.9a.62.62,0,0,1-.77,0,11,11,0,0,0-2.33-1,1.18,1.18,0,0,1-1-1.07C45,30,45,30,43.73,30.1c0,0-.07,0-.13.08-.08.45-.19.91-.23,1.38s-.22.52-.6.65c-.9.31-1.76.76-2.66,1.1a1,1,0,0,1-.75,0c-.45-.24-.85-.57-1.3-.87l-1,1Z"/><path class="cls-1" d="M58.26,63l1.34-.84.84,1.34-1.33.84Z"/><path class="cls-1" d="M58.78,60.81l-1.36.84-.83-1.35,1.34-.85Z"/><path class="cls-1" d="M10.06,5.55V4H45.27V5.55Z"/><path class="cls-1" d="M51.43,5.56V4.06h1.5v1.5Z"/><path class="cls-1" d="M57,5.56h-1.5V4H57Z"/><path class="cls-1" d="M61,5.56H59.53V4H61Z"/><path class="cls-1" d="M44.22,44.9a5.2,5.2,0,0,1-5.1-5.17,5.13,5.13,0,1,1,5.1,5.17Zm-3.37-5.24a3.47,3.47,0,0,0,6.93.27,3.58,3.58,0,0,0-3.5-3.77A3.41,3.41,0,0,0,40.85,39.66Z"/></svg>