<svg id="Warstwa_1" data-name="Warstwa 1" xmlns="http://www.w3.org/2000/svg" width="22.47mm" height="22.47mm" viewBox="0 0 63.69 63.69"><defs><style>.cls-1{fill:#5db2ff;}</style></defs><path class="cls-1" d="M42.75,44.23A25.48,25.48,0,1,1,41.07,5.38a24.68,24.68,0,0,1,9.76,18,25.24,25.24,0,0,1-6.61,19.37c1.22,1.22,2.42,2.43,3.63,3.61a.62.62,0,0,0,.52,0,5.61,5.61,0,0,1,6.82,1.35c2.33,2.33,4.68,4.65,7,7a5.22,5.22,0,0,1,1,5.84,5.28,5.28,0,0,1-5,3.13,5.08,5.08,0,0,1-3.45-1.48c-2.54-2.52-5.09-5.05-7.6-7.6a5.14,5.14,0,0,1-.88-6,.74.74,0,0,0-.19-1.06C45,46.46,43.87,45.35,42.75,44.23ZM25.46,48.86A23.38,23.38,0,1,0,2.09,25.47,23.4,23.4,0,0,0,25.46,48.86Zm36.17,9.19c-.16-.35-.44-1-.74-1.65a1.18,1.18,0,0,0-.26-.29c-2.46-2.46-4.9-4.92-7.37-7.37a3.26,3.26,0,0,0-4.5-.1,3.11,3.11,0,0,0-.2,4.42Q52.36,57,56.3,60.8a3,3,0,0,0,3.46.47C61,60.73,61.53,59.73,61.63,58.05Z"/><path class="cls-1" d="M26.41,56.29c-7.78-.11-14-2.13-19.5-6.26l-.21-.16c-.67-.52-.83-1.12-.45-1.64s1-.57,1.68,0a28.87,28.87,0,0,0,5.62,3.37,28.36,28.36,0,0,0,21.37,1c.37-.13.74-.28,1.12-.4a1,1,0,0,1,1.36.6,1,1,0,0,1-.65,1.34,52.26,52.26,0,0,1-5.46,1.57C29.39,56.06,27.44,56.17,26.41,56.29Z"/><path class="cls-1" d="M56.25,25.46a31.58,31.58,0,0,1-2,11c-.2.54-.51.94-1.14.93s-1.11-.72-.86-1.57a50.86,50.86,0,0,0,1.4-5,28.33,28.33,0,0,0-4.86-22c-.2-.29-.42-.57-.62-.86a1,1,0,0,1,.19-1.52,1.07,1.07,0,0,1,1.51.32,31.14,31.14,0,0,1,5.33,10.81A31.54,31.54,0,0,1,56.25,25.46Z"/><path class="cls-1" d="M46.69,3.23a1,1,0,1,1-2.08-.14,1,1,0,0,1,2.08.14Z"/><path class="cls-1" d="M4.21,45.64a1.06,1.06,0,0,1-1,1.06,1,1,0,0,1,0-2.09A1.07,1.07,0,0,1,4.21,45.64Z"/><path class="cls-1" d="M19.12,16.88a5,5,0,0,1-4-3.83,16.75,16.75,0,0,1-.21-3.62,1,1,0,0,1,1-.92,1,1,0,0,1,1,1c0,.73,0,1.46,0,2.19a3.24,3.24,0,0,0,2.59,3.12.87.87,0,0,0,.93-.3,5.18,5.18,0,0,1,4.06-1.78H26.4a5.2,5.2,0,0,1,4.06,1.77.87.87,0,0,0,1,.29A3.21,3.21,0,0,0,34,11.66c0-.66,0-1.33,0-2a1,1,0,1,1,2.08,0A18,18,0,0,1,36,12.33a5.26,5.26,0,0,1-4.18,4.56c0,.91,0,1.81,0,2.7a.62.62,0,0,0,.33.42,7.39,7.39,0,0,1,3.89,7c0,2.29-.06,4.6-.28,6.88a10.08,10.08,0,0,1-2.27,5.43,7.72,7.72,0,0,1-5.5,3,23.38,23.38,0,0,1-5.61-.1c-3.91-.66-6-3.37-7-7A12.19,12.19,0,0,1,15,32.31a62.22,62.22,0,0,1,0-6.83,6.77,6.77,0,0,1,3.65-5.38.82.82,0,0,0,.48-.83C19.09,18.5,19.12,17.73,19.12,16.88Zm7.4,23.48A6.46,6.46,0,0,0,32.1,37.7a7.77,7.77,0,0,0,1.58-4,67.93,67.93,0,0,0,.24-7.81,5.15,5.15,0,0,0-5.12-4.71c-2.26,0-4.51,0-6.77,0A5.28,5.28,0,0,0,17,26.31c0,1.74-.06,3.49,0,5.24a11.12,11.12,0,0,0,1.81,6.07,6.43,6.43,0,0,0,5.64,2.74V24.92a4,4,0,0,1,0-.6,1,1,0,0,1,1-.94,1,1,0,0,1,1.05.92c0,.2,0,.4,0,.6V40.36ZM21.26,19.13h8.48c0-.39,0-.74,0-1.09A3,3,0,0,0,27.25,15a11.13,11.13,0,0,0-3.55,0C21.86,15.27,21,16.87,21.26,19.13Z"/><path class="cls-1" d="M8.45,28.45a26.69,26.69,0,0,1,.16-2.83,5.22,5.22,0,0,1,4.76-4.36c.86-.07,1.42.3,1.46,1s-.42,1.05-1.27,1.11a3.19,3.19,0,0,0-3,3.16c0,1.35,0,2.7,0,4.05,0,.79-.4,1.27-1,1.28s-1.05-.48-1.06-1.25,0-1.42,0-2.12Z"/><path class="cls-1" d="M40.35,28.47c0-.67,0-1.33,0-2a3.19,3.19,0,0,0-3-3.14c-.82-.06-1.3-.5-1.24-1.14s.6-1,1.43-.94a5.3,5.3,0,0,1,4.9,5.17c0,1.39,0,2.78,0,4.18a1.08,1.08,0,0,1-1,1.22c-.63,0-1.05-.47-1.06-1.24S40.36,29.17,40.35,28.47Z"/><path class="cls-1" d="M14.58,19.22a16.12,16.12,0,0,1-2.7-.53,5.07,5.07,0,0,1-3.37-4.51c-.09-.82.29-1.36.94-1.42s1.09.41,1.14,1.23a3.19,3.19,0,0,0,3.13,3c.69,0,1.37,0,2.06,0A1.07,1.07,0,0,1,17,18.06a1.08,1.08,0,0,1-1.16,1c-.4,0-.79,0-1.19,0Z"/><path class="cls-1" d="M36.26,19.09c-.38,0-.75,0-1.13,0a1,1,0,1,1,0-2.09c.69,0,1.37,0,2.06,0a3.21,3.21,0,0,0,3.18-3c.06-.79.47-1.25,1.09-1.23s1.05.57,1,1.38a5.33,5.33,0,0,1-5.12,5C37,19.1,36.61,19.09,36.26,19.09Z"/><path class="cls-1" d="M24.39,10.5a1.08,1.08,0,0,1-1,1.15,1,1,0,0,1-1.12-1,1.12,1.12,0,0,0-1.12-1.15,1.05,1.05,0,0,1-1-1.1,1.09,1.09,0,0,1,1.2-1A3.21,3.21,0,0,1,24.39,10.5Z"/><path class="cls-1" d="M26.55,10.47a3.23,3.23,0,0,1,3-3,1.08,1.08,0,0,1,1.17.94,1,1,0,0,1-1,1.14,1.14,1.14,0,0,0-1.17,1.17,1,1,0,0,1-1.14,1A1.09,1.09,0,0,1,26.55,10.47Z"/><path class="cls-1" d="M21.21,26.59a1,1,0,1,1-1-1.09A1.07,1.07,0,0,1,21.21,26.59Z"/><path class="cls-1" d="M31.82,26.56a1.05,1.05,0,0,1-1.07,1,1,1,0,1,1,1.07-1Z"/><path class="cls-1" d="M21.21,30.78a1,1,0,1,1-1.07-1A1.07,1.07,0,0,1,21.21,30.78Z"/><path class="cls-1" d="M30.76,31.83a1,1,0,1,1,1.06-1A1.07,1.07,0,0,1,30.76,31.83Z"/></svg>