<svg id="Warstwa_1" data-name="Warstwa 1" xmlns="http://www.w3.org/2000/svg" width="20.68mm" height="20.68mm" viewBox="0 0 58.62 58.63"><defs><style>.cls-1{fill:#5db2ff;}</style></defs><path class="cls-1" d="M29.26,58.63A29.54,29.54,0,0,1,0,29.26,29.53,29.53,0,0,1,29.36,0,29.54,29.54,0,0,1,58.62,29.37,29.53,29.53,0,0,1,29.26,58.63ZM2.47,29.29a26.58,26.58,0,0,0,26.8,26.86A26.56,26.56,0,0,0,56.14,29.38,26.57,26.57,0,0,0,29.31,2.48,26.58,26.58,0,0,0,2.47,29.29Z"/><path class="cls-1" d="M22.09,14.54l1,2.09a13.93,13.93,0,0,0-7.49,9.28,14.41,14.41,0,0,0,.66,8.89,14.14,14.14,0,0,0,26.6-1.56,14.19,14.19,0,0,0-7.4-16.63l1-2.09A16.43,16.43,0,0,1,45.68,31.7,16.86,16.86,0,0,1,29.12,45.88,17,17,0,0,1,12.91,31.59C11.74,23.08,17.44,16.4,22.09,14.54Z"/><path class="cls-1" d="M28.1,19.73v-8a6.6,6.6,0,0,1,0-.77,1.2,1.2,0,0,1,2.38,0,8,8,0,0,1,0,.85V27.83c0,.23,0,.45,0,.68a1.2,1.2,0,1,1-2.4,0c0-.25,0-.51,0-.76Z"/></svg>