<svg id="Warstwa_1" data-name="Warstwa 1" xmlns="http://www.w3.org/2000/svg" width="24.1mm" height="19.29mm" viewBox="0 0 68.33 54.67"><defs><style>.cls-1{fill:#5db2ff;}</style></defs><path class="cls-1" d="M34.14,54.67H1.68C.31,54.67,0,54.36,0,53V1.66C0,.31.32,0,1.68,0h65C68,0,68.33.33,68.33,1.63V53c0,1.3-.33,1.63-1.65,1.63ZM66.06,2.3H2.29V52.37H66.06Z"/><path class="cls-1" d="M6.84,6.8V27.25c1.3.25,2.57.42,3.8.75a18.91,18.91,0,0,1,8.59,5.37c1.55,1.6,3,3.33,4.42,5a1.33,1.33,0,0,0,1.14.53,22.15,22.15,0,0,0,17.86-8.65c1.72-2.09,3.43-4.19,5.22-6.22a18.76,18.76,0,0,1,11-6.6c.86-.15,1.73-.24,2.66-.37V6.18a4.53,4.53,0,0,1,0-.64,1.11,1.11,0,0,1,1.14-1,1.08,1.08,0,0,1,1.07,1,3.37,3.37,0,0,1,0,.71V48.4c0,1.41-.3,1.71-1.71,1.71H10.8c-1.12,0-1.66-.35-1.68-1.09s.54-1.16,1.69-1.16H29.22c0-.09,0-.16,0-.17-3.19-2.54-5.56-5.83-8.13-8.93a36.74,36.74,0,0,0-5.83-5.93,15,15,0,0,0-7.72-3.17c-.21,0-.42,0-.74-.05V48.43a3.37,3.37,0,0,1,0,.71,1.08,1.08,0,0,1-1.07,1,1.11,1.11,0,0,1-1.14-1,4.56,4.56,0,0,1,0-.64V6.19c0-1.31.33-1.63,1.64-1.63H57.61a3.43,3.43,0,0,1,.64,0,1.11,1.11,0,0,1,1,1.08,1.12,1.12,0,0,1-1,1.13,6.77,6.77,0,0,1-.78,0H6.84ZM26,41.25A28.62,28.62,0,0,0,30.8,46a9.44,9.44,0,0,0,5.72,1.84c8,0,16.09,0,24.14,0h.8V19.39a15.4,15.4,0,0,0-8.86,3.23,37,37,0,0,0-5.28,5.48c-1.8,2.11-3.55,4.27-5.49,6.26a21.29,21.29,0,0,1-10.63,6C29.52,40.75,27.8,40.94,26,41.25Z"/><path class="cls-1" d="M34.15,18.2a6.82,6.82,0,1,1-6.81-6.8A6.86,6.86,0,0,1,34.15,18.2Zm-6.82-4.56A4.58,4.58,0,1,0,31.9,18.2,4.58,4.58,0,0,0,27.33,13.64Z"/></svg>