<svg id="Warstwa_1" data-name="Warstwa 1" xmlns="http://www.w3.org/2000/svg" width="22.96mm" height="22.95mm" viewBox="0 0 65.09 65.05"><defs><style>.cls-1{fill:#5db2ff;}</style></defs><path class="cls-1" d="M7.59,15.18V1.42C7.59.36,8,0,9,0H56c1.07,0,1.43.36,1.43,1.41V31.09a2.42,2.42,0,0,1,0,.54,1,1,0,0,1-1,.89,1.06,1.06,0,0,1-1.09-.92,5,5,0,0,1,0-.67V2.22H9.8V47.67H55.3V47q0-5.49,0-11a1.15,1.15,0,0,1,.8-1.26,1.08,1.08,0,0,1,1.37,1.15c0,1.85,0,3.7,0,5.55,0,2.35,0,4.7,0,7.05,0,1-.36,1.38-1.39,1.38H9c-1,0-1.39-.36-1.39-1.44v-31H4.34V39.57a3.84,3.84,0,0,1,0,.68,1,1,0,0,1-1.06.94,1,1,0,0,1-1.07-.93,3.06,3.06,0,0,1,0-.61V16.75c0-1.28.3-1.57,1.61-1.57Z"/><path class="cls-1" d="M60.67,17.4c-.16-.07-.43-.1-.51-.23a2.23,2.23,0,0,1-.48-1.1c0-.71.61-.93,2-.89a1.1,1.1,0,0,1,1.22,1c0,.23,0,.45,0,.68V54.21c.38,0,.73,0,1.08,0a1,1,0,0,1,1.06.94A38.73,38.73,0,0,1,65,60.44a5.27,5.27,0,0,1-5.48,4.61q-13.78,0-27.57,0H5.75A5.42,5.42,0,0,1,0,59.27V55.68c0-1.12.34-1.46,1.44-1.47h.73V44.75c0-.89.42-1.4,1.12-1.38s1,.51,1,1.38V54a1.12,1.12,0,0,0,0,.19h56.3Zm-20.55,39V59.3c0,1.06-.36,1.42-1.43,1.42H27.18c-.41,0-.82,0-1.22,0a1.08,1.08,0,0,1,0-2.15,4.87,4.87,0,0,1,.54,0H37.9V56.41H2.17v2.73c0,2.49,1.25,3.75,3.74,3.75H59.7a3.16,3.16,0,0,0,3.13-2.74c.12-1.22,0-2.47,0-3.73Z"/><path class="cls-1" d="M48.79,16.29H16.3V39c.18-.31.3-.5.41-.7Q21.32,30,25.93,21.61a2,2,0,0,1,.92-.9c.66-.25,1.07.2,1.38.77L33.48,31l1.29,2.33c.14-.2.25-.34.34-.5L37.9,28c.66-1.13,1.61-1.14,2.26,0l5.94,10.4c.43.76.29,1.42-.36,1.73s-1.12,0-1.54-.69l-4.77-8.34c-.11-.2-.23-.38-.41-.67l-1.13,2c-.54.94-1.1,1.87-1.6,2.83a1.07,1.07,0,0,0,0,.84c1,2,2.11,3.88,3.19,5.81a.88.88,0,0,0,.53.41c2.91,0,5.82,0,8.81,0V24.38c0-.19,0-.37,0-.55a1.09,1.09,0,0,1,2.17,0c0,.14,0,.27,0,.41V43c0,1.15-.34,1.48-1.5,1.48H21a2.4,2.4,0,0,1-.6,0,1.08,1.08,0,0,1,0-2.12,3,3,0,0,1,.67,0H37.2L27.13,24c-.19.3-.32.5-.43.71L16.42,43.36c-.12.22-.2.52-.38.63a1.84,1.84,0,0,1-1.12.38c-.32-.09-.58-.54-.8-.88-.09-.14,0-.39,0-.6V15.65c0-1.25.3-1.55,1.55-1.55H49.39c1.26,0,1.57.3,1.57,1.54v3.59c0,.87-.39,1.36-1.07,1.37s-1.09-.49-1.1-1.33Z"/><path class="cls-1" d="M32.53,10.84h-19a4.14,4.14,0,0,1-.61,0,1.05,1.05,0,0,1-1-1.05,1.07,1.07,0,0,1,1-1.1,4.82,4.82,0,0,1,.54,0H51.59a4.87,4.87,0,0,1,.54,0,1.08,1.08,0,0,1,0,2.16H32.53Z"/><path class="cls-1" d="M40.12,6.51H29.7a2.49,2.49,0,0,1-.61,0,1,1,0,0,1-.89-1,1,1,0,0,1,.91-1.09,2.42,2.42,0,0,1,.54,0H50.57a3.25,3.25,0,0,1,.54,0A1,1,0,0,1,52,5.43a1,1,0,0,1-.94,1.06,4.1,4.1,0,0,1-.61,0Z"/><path class="cls-1" d="M42.31,23.85a3.25,3.25,0,1,1,3.23-3.24A3.26,3.26,0,0,1,42.31,23.85Zm1.06-3.23a1.09,1.09,0,1,0-1.09,1.06A1.09,1.09,0,0,0,43.37,20.62Z"/><path class="cls-1" d="M13,4.34a1.08,1.08,0,1,1-1.06,1.09A1.09,1.09,0,0,1,13,4.34Z"/><path class="cls-1" d="M18.43,5.45a1.08,1.08,0,1,1-1-1.11A1.09,1.09,0,0,1,18.43,5.45Z"/><path class="cls-1" d="M22.77,5.44a1.09,1.09,0,1,1-1.05-1.1A1.09,1.09,0,0,1,22.77,5.44Z"/><path class="cls-1" d="M54.21,59.66a1.08,1.08,0,1,1-1-1.11A1.09,1.09,0,0,1,54.21,59.66Z"/><path class="cls-1" d="M58.55,59.63a1.09,1.09,0,1,1-1.07-1.08A1.09,1.09,0,0,1,58.55,59.63Z"/></svg>