<svg id="Warstwa_1" data-name="Warstwa 1" xmlns="http://www.w3.org/2000/svg" width="25.53mm" height="25.52mm" viewBox="0 0 72.38 72.34"><defs><style>.cls-1{fill:#5db2ff;}</style></defs><path class="cls-1" d="M58.63,48.77a4.12,4.12,0,0,1,1.7,3.78c0,5.27,0,10.55,0,15.83a3.64,3.64,0,0,1-3.93,4H3.93a3.64,3.64,0,0,1-3.92-4c0-5.3,0-10.6,0-15.9a4.19,4.19,0,0,1,1.31-3.41C-.07,47.66,0,45.89,0,44.13Q0,27.65,0,11.18a6,6,0,0,1,6.36-6.4H53.79c.2,0,.4,0,.6,0A1.19,1.19,0,0,1,55.49,6a1.17,1.17,0,0,1-1.07,1.17,4.68,4.68,0,0,1-.75,0H6.56c-2.73,0-4.14,1.41-4.14,4.13v34c0,2,.89,2.89,2.9,2.89H53.87c2.6,0,4-1.44,4-4.07V25.59a3.74,3.74,0,0,1,0-.75,1.21,1.21,0,0,1,2.36,0,3.74,3.74,0,0,1,0,.75c0,6.16,0,12.31,0,18.47A6.58,6.58,0,0,1,58.63,48.77ZM43.4,65.15H17v4.74H43.4Zm14.44-2.48V57.91H45.9v4.76Zm-55.38,0h12V57.9h-12Zm26.46-7.22V50.68h-12V55.4h4.76c.11-.95-.28-2.26,1.16-2.32,1.62-.07,1.18,1.38,1.33,2.33Zm7.22,0V50.68H31.41v4.73Zm-21.7,0V50.68H9.72v4.75Zm24.22-4.77v4.73h4.73V50.66Zm12,0H45.91v4.73h4.73Zm-29,12V57.92H16.94v4.73Zm7.23,0V57.92H24.18v4.73Zm2.51-4.76v4.75h4.73V57.89Zm12,0H38.65v4.74H43.4ZM9.72,65.13v4.75h4.72V65.13Zm36.18,0v4.73h4.73V65.13ZM7.21,50.63c-1.26,0-2.46,0-3.66,0a1,1,0,0,0-1.08,1c-.07,1.26,0,2.54,0,3.8H7.21ZM57.9,55.41c0-1.26,0-2.46,0-3.66a1,1,0,0,0-1-1.09c-1.26-.06-2.54,0-3.8,0v4.77ZM7.19,69.92V65.14H2.43c0,1.24,0,2.44,0,3.64a1.11,1.11,0,0,0,1.18,1.13C4.79,70,6,69.92,7.19,69.92Zm45.92,0c1.26,0,2.44,0,3.62,0a1.08,1.08,0,0,0,1.15-1.06c.06-1.23,0-2.45,0-3.7H53.11Z"/><path class="cls-1" d="M30.13,45.8H8.87c-2.57,0-4-1.45-4-4V13.6a3.63,3.63,0,0,1,4-4h39a3.75,3.75,0,0,1,.67,0,1.18,1.18,0,0,1,1,1.21,1.16,1.16,0,0,1-1,1.15,3.73,3.73,0,0,1-.82,0H9c-1.45,0-1.78.32-1.78,1.75v27.9c0,1.37.35,1.71,1.74,1.71H51.35c1.39,0,1.73-.34,1.73-1.73V30.42c0-.82.35-1.28,1-1.4a1.16,1.16,0,0,1,1.42,1.17c0,4.1.05,8.19,0,12.29a3.52,3.52,0,0,1-3.7,3.31H30.13Z"/><path class="cls-1" d="M67.56,8.24,64.09,4.78,37.82,29.46l1.78,1.71c.69-.73,1.45-1.58,2.26-2.39a1.18,1.18,0,0,1,1.89.07,1.16,1.16,0,0,1-.19,1.63c-.8.8-1.62,1.58-2.48,2.41L43,34.57a6.07,6.07,0,0,1,.53-.72Q52.26,24.52,61,15.21l.47-.49c.69-.73,1.4-.84,2-.32s.48,1.24-.21,2Q53.63,26.6,44,36.8a3.26,3.26,0,0,1-1.3.83c-3.13,1.08-6.28,2.11-9.42,3.17a1.38,1.38,0,0,1-1.54-.18A1.41,1.41,0,0,1,31.55,39c1.06-3.13,2.08-6.28,3.17-9.41a3.68,3.68,0,0,1,.94-1.4Q49.25,15.39,62.85,2.63c.44-.41.85-.85,1.29-1.26a4.94,4.94,0,0,1,6.88,0,4.85,4.85,0,0,1-.12,6.85c-1.33,1.37-2.63,2.76-4,4.14-.62.65-1.32.74-1.85.26s-.54-1.21.1-1.91S66.74,9.11,67.56,8.24ZM36.5,31.83l-2,6,6-2ZM69.31,6.35a2.28,2.28,0,0,0,0-3.23A2.33,2.33,0,0,0,66,3Z"/><path class="cls-1" d="M26.51,20.08l2.81,1.61c1.16.67,1.15,1.7,0,2.37-1,.59-2,1.17-3.19,1.83l3.07,1.76c.51.28,1,.58,1,1.23s-.45,1-1,1.29c-1,.55-1.95,1.12-3.06,1.76l2.94,1.68c.54.3,1.08.58,1.1,1.31s-.57,1-1.13,1.37c-2.53,1.44-5.06,2.87-7.57,4.34a1.67,1.67,0,0,1-1.89,0c-2.58-1.51-5.18-3-7.77-4.46-1.26-.73-1.27-1.73,0-2.44l3.14-1.81L13,30.85l-1.3-.75c-1.16-.68-1.18-1.7,0-2.37L14.64,26a1.39,1.39,0,0,0,.19-.17c-.55-.33-1.07-.64-1.6-.94s-1.1-.62-1.63-.95a1.2,1.2,0,0,1,0-2.21c2.74-1.58,5.48-3.16,8.25-4.68a1.77,1.77,0,0,1,1.39,0,15.15,15.15,0,0,1,2.36,1.32.89.89,0,0,0,1.2-.07c1.06-.8,2.15-1.57,3.24-2.32a2,2,0,0,1,.95-.39q7.2,0,14.4,0a1.2,1.2,0,0,1,1.26,1.22,1.23,1.23,0,0,1-1.22,1.19h-.61c-4.22,0-8.44,0-12.66,0a3,3,0,0,0-1.43.46C28,19,27.28,19.53,26.51,20.08Zm-12,2.8c1.7,1,3.31,1.8,4.81,2.78a1.93,1.93,0,0,0,2.42,0c1.51-1,3.1-1.8,4.77-2.76-.67-.39-1.2-.74-1.78-1a.93.93,0,0,0-.78.06c-.86.56-1.68,1.18-2.52,1.77s-1.48.48-1.91-.15-.24-1.26.5-1.8l2-1.43a6.35,6.35,0,0,0-.94-.55c-.28-.1-.66-.23-.87-.12C18.33,20.67,16.49,21.74,14.51,22.88Zm.06,6c.14.11.17.15.21.18a35.75,35.75,0,0,1,3.7,2.16,3,3,0,0,0,4.06,0,40.28,40.28,0,0,1,4-2.32c-.87-.5-1.6-1-2.38-1.34a1.2,1.2,0,0,0-.93,0,15.13,15.13,0,0,0-1.84,1,1.43,1.43,0,0,1-1.68,0c-.61-.39-1.25-.74-1.89-1.07a.9.9,0,0,0-.68-.11C16.27,27.87,15.46,28.36,14.57,28.88Zm-.05,6.06c2,1.15,3.87,2.23,5.77,3.28A.87.87,0,0,0,21,38.1c1.09-.6,2.18-1.23,3.26-1.85.73-.41,1.45-.84,2.21-1.28-2.43-1.81-2.47-1.82-4.9-.44l-.26.15a1.32,1.32,0,0,1-1.55,0c-.64-.39-1.3-.77-2-1.11a.88.88,0,0,0-.68-.09C16.26,33.91,15.45,34.41,14.52,34.94Z"/><path class="cls-1" d="M48.26,38.56c0-.79,0-1.51,0-2.24a1.23,1.23,0,0,1,1.17-1.38c.73,0,1.23.53,1.24,1.39,0,1.08,0,2.17,0,3.25A1.23,1.23,0,0,1,49.28,41H46a1.21,1.21,0,1,1,0-2.41C46.69,38.55,47.44,38.56,48.26,38.56Z"/><path class="cls-1" d="M12.07,16.84c0,.49,0,.89,0,1.29a1.18,1.18,0,0,1-1.19,1.12,1.17,1.17,0,0,1-1.19-1.12,24.29,24.29,0,0,1,0-2.56,1.12,1.12,0,0,1,1.18-1.13c1.2,0,2.41,0,3.61,0a1.18,1.18,0,0,1,1.22,1.18,1.2,1.2,0,0,1-1.26,1.22C13.68,16.86,12.93,16.84,12.07,16.84Z"/><path class="cls-1" d="M10.88,41a1.23,1.23,0,0,1-1.22-1.18A1.21,1.21,0,1,1,10.88,41Z"/></svg>